<?xml version="1.0" encoding="utf-8"?>
<!-- Generator: Adobe Illustrator 24.3.0, SVG Export Plug-In . SVG Version: 6.00 Build 0)  -->
<svg version="1.1" id="f0ec43ad-ab8b-4452-aa02-b946d52b4df4"
	 xmlns="http://www.w3.org/2000/svg" xmlns:xlink="http://www.w3.org/1999/xlink" x="0px" y="0px" width="12.4px" height="29.9px"
	 viewBox="0 0 12.4 29.9" style="enable-background:new 0 0 12.4 29.9;" xml:space="preserve">
<style type="text/css">
	.st0{fill:#E2E2E2;}
</style>
<path class="st0" d="M8.4,28.5c-0.1,0.8-0.9,1.5-1.7,1.4H5.2c-0.8,0-1.5-0.6-1.6-1.4c-0.2-1.4-0.8-12.4-0.9-13.2
	c-0.5-5.9-1.4,4.3-1.4,5s-1.4,1.4-1.3,0s0.7-7.6,0.7-8.6c0-1.1,0.6-2.1,1.5-2.6C3,8.7,3.8,8.5,4.7,8.5h2.6c0.9,0,1.8,0.3,2.6,0.7
	c0.9,0.5,1.4,1.5,1.4,2.5c0.1,1.9,1.1,7,1,8.6s-1.3,1.4-1.5,0c-0.5-6.4-1.1-8.8-1.4-4.8"/>
<path class="st0" d="M1.6,4.3C1.6,1.9,3.5,0,5.9,0s4.3,1.9,4.3,4.3S8.3,8.6,5.9,8.6S1.6,6.7,1.6,4.3z"/>
</svg>
