<?xml version="1.0" encoding="utf-8"?>
<!-- Generator: Adobe Illustrator 24.3.0, SVG Export Plug-In . SVG Version: 6.00 Build 0)  -->
<svg version="1.1" id="ab8b3ee3-85c2-411a-90a9-0f9998368216"
	 xmlns="http://www.w3.org/2000/svg" xmlns:xlink="http://www.w3.org/1999/xlink" x="0px" y="0px" width="40px" height="40px"
	 viewBox="0 0 40 40" style="enable-background:new 0 0 40 40;" xml:space="preserve">
<style type="text/css">
	.st0{fill:#3D3D3D;stroke:#737373;stroke-width:2;stroke-miterlimit:10;}
	.st1{fill:#E6E7E8;}
	.st2{fill:#E2E2E2;}
</style>
<circle class="st0" cx="20" cy="20" r="19"/>
<path class="st1" d="M22.5,33.6c-0.1,0.8-0.9,1.5-1.7,1.4h-1.5c-0.8,0-1.5-0.6-1.6-1.4c-0.2-1.4-0.8-12.4-0.9-13.2
	c-0.5-5.9-1.4,4.3-1.4,5s-1.4,1.4-1.3,0s0.7-7.6,0.7-8.6c0-1.1,0.6-2.1,1.5-2.6c0.8-0.4,1.6-0.6,2.5-0.6h2.6c0.9,0,1.8,0.3,2.6,0.7
	c0.9,0.5,1.4,1.5,1.4,2.5c0.1,1.9,1.1,7,1,8.6s-1.3,1.4-1.5,0c-0.5-6.4-1.1-8.8-1.4-4.8"/>
<path class="st2" d="M15.7,9.4c0-2.4,1.9-4.3,4.3-4.3s4.3,1.9,4.3,4.3s-1.9,4.3-4.3,4.3S15.7,11.8,15.7,9.4z"/>
</svg>
