<svg id="ab8b3ee3-85c2-411a-90a9-0f9998368216" data-name="Layer 6" xmlns="http://www.w3.org/2000/svg" width="40" height="40" viewBox="0 0 40 40"><circle cx="20" cy="20" r="19" fill="#3d3d3d" stroke="#737373" stroke-miterlimit="10" stroke-width="2"/><path d="M238.7,462.6A1.6,1.6,0,0,1,237,464h-1.5a1.6,1.6,0,0,1-1.6-1.4c-.2-1.4-.8-12.4-.9-13.2-.5-5.9-1.4,4.3-1.4,5s-1.4,1.4-1.3,0,.7-7.6.7-8.6a2.9,2.9,0,0,1,1.5-2.6,5.4,5.4,0,0,1,2.5-.6h2.6a5.6,5.6,0,0,1,2.6.7,2.9,2.9,0,0,1,1.4,2.5c.1,1.9,1.1,7,1,8.6s-1.3,1.4-1.5,0c-.5-6.4-1.1-8.8-1.4-4.8" transform="translate(-216.2 -429)" fill="#e6e7e8"/><path d="M231.9,438.4a4.3,4.3,0,0,1,4.3-4.3,4.3,4.3,0,0,1,4.3,4.3,4.3,4.3,0,0,1-8.6,0Z" transform="translate(-216.2 -429)" fill="#e2e2e2"/></svg>