<svg id="f0ec43ad-ab8b-4452-aa02-b946d52b4df4" data-name="Layer 12" xmlns="http://www.w3.org/2000/svg" width="12.4" height="29.9" viewBox="0 0 12.4 29.9"><path d="M238.7,462.6A1.6,1.6,0,0,1,237,464h-1.5a1.6,1.6,0,0,1-1.6-1.4c-.2-1.4-.8-12.4-.9-13.2-.5-5.9-1.4,4.3-1.4,5s-1.4,1.4-1.3,0,.7-7.6.7-8.6a2.9,2.9,0,0,1,1.5-2.6,5.4,5.4,0,0,1,2.5-.6h2.6a5.6,5.6,0,0,1,2.6.7,2.9,2.9,0,0,1,1.4,2.5c.1,1.9,1.1,7,1,8.6s-1.3,1.4-1.5,0c-.5-6.4-1.1-8.8-1.4-4.8" transform="translate(-230.3 -434.1)" fill="#a4a2a4"/><path d="M231.9,438.4a4.3,4.3,0,0,1,4.3-4.3,4.3,4.3,0,0,1,4.3,4.3,4.3,4.3,0,0,1-8.6,0Z" transform="translate(-230.3 -434.1)" fill="#a4a2a4"/></svg>