<svg xmlns="http://www.w3.org/2000/svg" width="40" height="40" viewBox="0 0 40 40"><g id="b39e9b52-91fb-4894-8e64-d5e53cdb9daf" data-name="Layer 11"><circle cx="20" cy="20" r="19" fill="#e22773" stroke="#71143a" stroke-miterlimit="10" stroke-width="2"/><path d="M231.9,391.7a4.3,4.3,0,0,1,8.6,0,4.3,4.3,0,0,1-8.6,0Z" transform="translate(-216.2 -382.3)" fill="#e6e7e8"/><path d="M238.4,416a1.5,1.5,0,0,1-1.6,1.4h-1.5a1.5,1.5,0,0,1-1.6-1.3c-.3-1.5-.9-12.5-1-13.3-.5-5.9-1.3,4.3-1.3,5s-1.4,1.4-1.4,0,.7-7.6.7-8.6a2.9,2.9,0,0,1,1.6-2.5,4.5,4.5,0,0,1,2.5-.7h2.6a5.2,5.2,0,0,1,2.5.7,2.9,2.9,0,0,1,1.5,2.5c0,1.9,1,7,1,8.6s-1.4,1.4-1.5,0c-.5-6.4-1.1-8.8-1.5-4.8" transform="translate(-216.2 -382.3)" fill="#e6e7e8"/></g></svg>