<svg id="a2e8b494-4f5d-48c6-bf3a-a4b999001d41" data-name="Layer 10" xmlns="http://www.w3.org/2000/svg" width="40" height="40" viewBox="0 0 40 40"><circle cx="20" cy="20" r="19" fill="#e22773" stroke="#71143a" stroke-miterlimit="10" stroke-width="2"/><rect x="9.2" y="11" width="21.6" height="14.6" fill="#7e7f81"/><path d="M187.7,406.7H166l1.2,1.2V393.3l-1.2,1.2h21.7l-1.2-1.2v14.6a1.2,1.2,0,0,0,2.4,0V393.3a1.3,1.3,0,0,0-1.2-1.2H166a1.3,1.3,0,0,0-1.2,1.2v14.6a1.2,1.2,0,0,0,1.2,1.2h21.7A1.2,1.2,0,0,0,187.7,406.7Z" transform="translate(-156.8 -382.3)" fill="#c8ccd5"/><rect x="16.8" y="25.6" width="6.6" height="4.15" fill="#c8ccd5"/><line x1="27.2" y1="31" x2="12.8" y2="31" fill="#c8ccd5"/><path d="M184.1,411.8H169.6a1.5,1.5,0,0,0,0,3h14.5a1.5,1.5,0,0,0,0-3Z" transform="translate(-156.8 -382.3)" fill="#c8ccd5"/></svg>