<?xml version="1.0" encoding="utf-8"?>
<!-- Generator: Adobe Illustrator 24.3.0, SVG Export Plug-In . SVG Version: 6.00 Build 0)  -->
<svg version="1.1" id="f7df09fa-28c2-4169-b599-8f71a4467003"
	 xmlns="http://www.w3.org/2000/svg" xmlns:xlink="http://www.w3.org/1999/xlink" x="0px" y="0px" width="40px" height="40px"
	 viewBox="0 0 40 40" style="enable-background:new 0 0 40 40;" xml:space="preserve">
<style type="text/css">
	.st0{fill:#476491;}
	.st1{fill:#3D3D3D;stroke:#6A85AD;stroke-width:2;stroke-miterlimit:10;}
	.st2{fill:#7E7F81;}
	.st3{fill:#E2E2E2;}
	.st4{fill:none;}
</style>
<rect x="16.7" y="25.7" class="st0" width="6.6" height="4.1"/>
<path class="st0" d="M12.7,32.6h14.5c0.8,0,1.5-0.7,1.5-1.5s-0.7-1.5-1.5-1.5H12.7c-0.8,0-1.5,0.7-1.5,1.5S11.9,32.6,12.7,32.6z"/>
<circle class="st1" cx="20" cy="20" r="19"/>
<rect x="9.2" y="11.1" class="st2" width="21.6" height="14.6"/>
<path class="st3" d="M30.9,24.5H9.2l1.2,1.2V11.1l-1.2,1.2h21.7l-1.2-1.2v14.6c0,0.7,0.5,1.2,1.2,1.2c0.7,0,1.2-0.5,1.2-1.2
	c0,0,0,0,0,0V11.1c0-0.6-0.6-1.2-1.2-1.2H9.2C8.6,9.9,8,10.5,8,11.1v14.6c0,0.7,0.5,1.2,1.2,1.2c0,0,0,0,0,0h21.7
	c0.7,0,1.2-0.5,1.2-1.2S31.6,24.5,30.9,24.5z"/>
<rect x="16.8" y="25.7" class="st3" width="6.6" height="4.1"/>
<line class="st4" x1="27.2" y1="31.1" x2="12.8" y2="31.1"/>
<path class="st3" d="M27.3,29.6H12.8c-0.8,0-1.5,0.7-1.5,1.5s0.7,1.5,1.5,1.5h14.5c0.8,0,1.5-0.7,1.5-1.5S28.1,29.6,27.3,29.6z"/>
</svg>
