<svg id="f4c9fad2-b1b5-4fe7-852f-7a00d336eae4" data-name="Layer 13" xmlns="http://www.w3.org/2000/svg" width="24" height="22.7" viewBox="0 0 24 22.7"><rect x="1.2" y="1.2" width="21.6" height="14.6" fill="#c8ccd5"/><path d="M187.8,455.1H166.1l1.2,1.2V441.7l-1.2,1.2h21.7l-1.2-1.2v14.6a1.2,1.2,0,1,0,2.4,0V441.7a1.3,1.3,0,0,0-1.2-1.2H166.1a1.3,1.3,0,0,0-1.2,1.2v14.6a1.2,1.2,0,0,0,1.2,1.2h21.7A1.2,1.2,0,0,0,187.8,455.1Z" transform="translate(-164.9 -440.5)" fill="#346493"/><rect x="8.8" y="15.8" width="6.6" height="4.15" fill="#346493"/><line x1="19.3" y1="21.2" x2="4.8" y2="21.2" fill="#346493"/><path d="M184.2,460.2H169.7a1.5,1.5,0,0,0,0,3h14.5a1.5,1.5,0,0,0,0-3Z" transform="translate(-164.9 -440.5)" fill="#346493"/></svg>