<?xml version="1.0" encoding="utf-8"?>
<!-- Generator: Adobe Illustrator 24.3.0, SVG Export Plug-In . SVG Version: 6.00 Build 0)  -->
<svg version="1.1" id="f4c9fad2-b1b5-4fe7-852f-7a00d336eae4"
	 xmlns="http://www.w3.org/2000/svg" xmlns:xlink="http://www.w3.org/1999/xlink" x="0px" y="0px" width="24px" height="22.7px"
	 viewBox="0 0 24 22.7" style="enable-background:new 0 0 24 22.7;" xml:space="preserve">
<style type="text/css">
	.st0{fill:#7E7F81;}
	.st1{fill:#E2E2E2;}
	.st2{fill:none;}
</style>
<rect x="1.2" y="1.2" class="st0" width="21.6" height="14.6"/>
<path class="st1" d="M22.9,14.6H1.2l1.2,1.2V1.2L1.2,2.4h21.7l-1.2-1.2v14.6c0,0.7,0.5,1.2,1.2,1.2c0.7,0,1.2-0.5,1.2-1.2
	c0,0,0,0,0,0V1.2c0-0.6-0.6-1.2-1.2-1.2H1.2C0.6,0,0,0.6,0,1.2v14.6C0,16.5,0.5,17,1.2,17c0,0,0,0,0,0h21.7c0.7,0,1.2-0.5,1.2-1.2
	S23.6,14.6,22.9,14.6z"/>
<rect x="8.8" y="15.8" class="st1" width="6.6" height="4.2"/>
<line class="st2" x1="19.3" y1="21.2" x2="4.8" y2="21.2"/>
<path class="st1" d="M19.3,19.7H4.8c-0.8,0-1.5,0.7-1.5,1.5s0.7,1.5,1.5,1.5h14.5c0.8,0,1.5-0.7,1.5-1.5S20.1,19.7,19.3,19.7z"/>
</svg>
