<svg id="f7df09fa-28c2-4169-b599-8f71a4467003" data-name="Layer 7" xmlns="http://www.w3.org/2000/svg" width="40" height="40" viewBox="0 0 40 40"><rect x="16.7" y="25.7" width="6.6" height="4.15" fill="#476491"/><path d="M169.6,463.2h14.5a1.5,1.5,0,0,0,0-3H169.6a1.5,1.5,0,0,0,0,3Z" transform="translate(-156.9 -430.6)" fill="#476491"/><circle cx="20" cy="20" r="19" fill="#495376" stroke="#afc0c3" stroke-miterlimit="10" stroke-width="2"/><rect x="9.2" y="11.1" width="21.6" height="14.6" fill="#7e7f81"/><path d="M187.8,455.1H166.1l1.2,1.2V441.7l-1.2,1.2h21.7l-1.2-1.2v14.6a1.2,1.2,0,1,0,2.4,0V441.7a1.3,1.3,0,0,0-1.2-1.2H166.1a1.3,1.3,0,0,0-1.2,1.2v14.6a1.2,1.2,0,0,0,1.2,1.2h21.7A1.2,1.2,0,0,0,187.8,455.1Z" transform="translate(-156.9 -430.6)" fill="#c8ccd5"/><rect x="16.8" y="25.7" width="6.6" height="4.15" fill="#c8ccd5"/><line x1="27.2" y1="31.1" x2="12.8" y2="31.1" fill="#c8ccd5"/><path d="M184.2,460.2H169.7a1.5,1.5,0,0,0,0,3h14.5a1.5,1.5,0,0,0,0-3Z" transform="translate(-156.9 -430.6)" fill="#c8ccd5"/></svg>